<?xml version="1.0" encoding="UTF-8"?>
<svg id="Layer_1" data-name="Layer 1" xmlns="http://www.w3.org/2000/svg" viewBox="0 0 512.04 512.01">
  <defs>
    <style>
      .cls-1 {
        fill: #63d58c;
      }

      .cls-2 {
        fill: #22c45e;
      }

      .cls-3 {
        fill: #141e51;
      }

      .cls-4 {
        fill: #39ca6f;
      }

      .cls-5 {
        fill: #63d58d;
      }

      .cls-6 {
        fill: #38c96e;
      }

      .cls-7 {
        fill: #fefefe;
      }
    </style>
  </defs>
  <path class="cls-2" d="M145.03,0c2.06.4,4.06.73,6,1,3.9-.31,7.9-.65,12-1h186c4.05.87,8.95.87,13,0h9l-.99.26c4.7.09,9.38.35,14.06.78-.46.35-.81.63-.76.62,33.53-4.84,68.75,11.74,92.18,35.37,30.39,30.65,36.79,62.37,36.51,102.97v232l-.45,2.25c1.72,38.96-7.52,72.25-36.33,101-30.64,30.58-62.49,37.04-103.21,36.75h-232l-2.25-.45c-38.96,1.72-72.25-7.52-101-36.33C6.21,444.57-.26,412.72.03,372v-5c.4-2.06.73-4.06,1-6-.31-3.9-.65-7.9-1-12v-186c.87-4.05.87-8.95,0-13v-10c-.6-40.31,6.65-73.16,36.79-103.25C65.19,8.43,97.46-1.24,136.42.55l4.62-.55h4Z"/>
  <g>
    <path class="cls-4" d="M362.03,0c2.94,1.48-15.94,1.48-13,0h13Z"/>
    <path class="cls-6" d="M.03,163v-13c1.48-2.94,1.48,15.94,0,13Z"/>
    <path class="cls-4" d="M163.03,0c.07.78-.91,1.02-1.94,1.02l-10.06-.02c-.87-.28-.86-.62,0-1h12Z"/>
    <path class="cls-6" d="M1.03,361c-.28.87-.62.86-1,0v-12c.78-.07,1.02.91,1.02,1.94l-.02,10.06Z"/>
    <path class="cls-5" d="M151.03,0v1c-1.99,0-4.73.76-6-1h6Z"/>
    <path class="cls-1" d="M.03,367v-6h1c0,1.99.76,4.73-1,6Z"/>
    <g>
      <g>
        <path class="cls-3" d="M409.99,369.25c-41.4,27.85-96.67,14.75-121.32-28.07-17.06-29.64-22.53-58.12-20.1-92.57,2.12-30.19,13.86-58.47,34.68-80.28,32.49-34.02,82.25-35.14,115.34-2.8,21.19,20.71,35.12,47.69,39.84,76.98,3.82,23.68.75,46.69-6.39,69.34-7.39,23.47-21.35,43.48-42.05,57.4Z"/>
        <path class="cls-7" d="M370.77,304.26c7.02,8.23,19.55,4.39,27.79.09,6.45-3.37,13.69-2.28,18.34,2.54,5.22,5.4,5.45,13.07,1.39,19.39-7.34,11.42-16.23,21.16-27.98,27.89-22.57,12.94-49.46,9.66-68.49-8.14-39.39-36.84-40.53-114.4-7.54-156.85,13.02-16.75,33.26-25.9,54.51-23.85,15.74,1.52,29.2,9.92,37.93,22.87,3.17,4.7,3.46,10.25.82,15.54-2.11,4.23-6.9,7.42-12.73,7.93-20.95,1.82-41.24,12.02-44.13,34.94-2.83,22.42,5.88,40.99,20.1,57.66Z"/>
      </g>
      <g>
        <path class="cls-3" d="M193.99,369.25c-41.4,27.86-96.67,14.75-121.32-28.07-17.06-29.64-22.53-58.12-20.1-92.58,2.12-30.19,13.85-58.47,34.68-80.28,32.5-34.02,82.27-35.14,115.34-2.8,21.38,20.91,35.39,48.2,39.97,77.79,3.66,23.68.49,46.69-6.76,69.28s-21.34,42.88-41.8,56.65Z"/>
        <path class="cls-7" d="M155.09,303.95c7.47,8.87,19.72,4.56,28.88.1,6.48-3.15,13.82-1.69,18.24,3.28,5,5.62,4.85,13.12.65,19.43-8.2,12.31-18.11,22.78-31.49,29.27-22.43,10.88-47.97,6.72-66.01-10.67-15.97-15.4-25.17-35.99-28.64-58.08-5.15-32.77.14-68.45,19.81-95.73,13.06-18.11,33.91-28.26,56.44-26.27,16.19,1.43,30.31,10.17,39.01,23.72,2.87,4.47,2.74,9.84.42,14.51-2.03,4.09-6.46,7.39-11.95,7.93-21.03,2.07-42.04,11.33-45.26,34.67-3.12,22.61,5.75,41.03,19.89,57.83Z"/>
      </g>
    </g>
  </g>
</svg>